<?xml version="1.0" encoding="UTF-8"?><svg id="_レイヤー_2" xmlns="http://www.w3.org/2000/svg" width="148.71mm" height="290.53mm" viewBox="0 0 421.54 823.54"><defs><style>.cls-1{stroke-width:2.08px;}.cls-1,.cls-2,.cls-3,.cls-4{stroke-miterlimit:10;}.cls-1,.cls-2,.cls-5{fill:#fff;}.cls-1,.cls-3,.cls-4{stroke:#00a0e9;}.cls-6,.cls-7,.cls-5{stroke-width:0px;}.cls-6,.cls-4{fill:#00a0e9;}.cls-2{stroke:#040000;stroke-width:.97px;}.cls-7{fill:#c9caca;}.cls-3{fill:none;}.cls-3,.cls-4{stroke-width:2.52px;}</style></defs><g id="_レイヤー_1-2"><rect class="cls-7" x="48.39" y="498.51" width="33.78" height="18.08" transform="translate(-442.27 572.83) rotate(-90)"/><rect class="cls-7" x="48.39" y="398.31" width="33.78" height="18.08" transform="translate(-342.07 472.63) rotate(-90)"/><rect class="cls-7" x="48.39" y="297.82" width="33.78" height="18.08" transform="translate(-241.59 372.14) rotate(-90)"/><path class="cls-2" d="M74.32,306.86h103.78-103.78Z"/><path class="cls-2" d="M292.33,306.86h-38.39,38.39Z"/><rect class="cls-7" x="238.85" y="494.7" width="33.78" height="33.78" transform="translate(-255.86 767.33) rotate(-90)"/><rect class="cls-7" x="239.21" y="380.64" width="33.78" height="33.78" transform="translate(-141.43 653.63) rotate(-90)"/><rect class="cls-7" x="-362.13" y="405.84" width="823.25" height="11.87" transform="translate(-362.28 461.28) rotate(-90)"/><rect class="cls-6" x="-389.44" y="389.59" width="823.25" height="44.37" transform="translate(-389.59 433.96) rotate(-90)"/><path class="cls-5" d="M279.46,675.05c.05-.27.49-1.02,1.63-1.02,1.47,0,2.19,1.18.87,2.19-.39.3-1.3,1-1.88,1.44h2.64v.4h-3.25v-.44l2.2-1.72c.88-.69.49-1.51-.56-1.51-.96,0-1.18.77-1.18.77l-.47-.11Z"/><path class="cls-5" d="M283.24,674.11h1.22v3.95h-.51v-3.57h-.72v-.39Z"/><rect class="cls-7" x="55.27" y="593.75" width="366.28" height="84.98"/><polyline class="cls-4" points="221.92 677.51 221.92 670.75 56.7 670.75 56.7 822.28 420.14 822.28 420.14 670.75 254.91 670.75 254.91 677.51"/><polyline class="cls-3" points="197.07 221.54 299.59 221.54 299.59 593.75 56.24 593.75 56.24 221.54 164.09 221.54"/><path class="cls-5" d="M141.23,395.98c-15.09,0-27.36-12.33-27.36-27.48s12.27-27.48,27.36-27.48,27.36,12.33,27.36,27.48-12.27,27.48-27.36,27.48Z"/><path class="cls-6" d="M141.23,341.6c14.77,0,26.78,12.07,26.78,26.9s-12.02,26.9-26.78,26.9-26.78-12.07-26.78-26.9,12.02-26.9,26.78-26.9M141.23,340.45c-15.43,0-27.94,12.56-27.94,28.05s12.51,28.05,27.94,28.05,27.94-12.56,27.94-28.05-12.51-28.05-27.94-28.05h0Z"/><path class="cls-5" d="M141.23,471.89c-15.09,0-27.36-12.33-27.36-27.48s12.27-27.48,27.36-27.48,27.36,12.33,27.36,27.48-12.27,27.48-27.36,27.48Z"/><path class="cls-6" d="M141.23,417.51c14.77,0,26.78,12.07,26.78,26.9s-12.02,26.9-26.78,26.9-26.78-12.07-26.78-26.9,12.02-26.9,26.78-26.9M141.23,416.35c-15.43,0-27.94,12.56-27.94,28.05s12.51,28.05,27.94,28.05,27.94-12.56,27.94-28.05-12.51-28.05-27.94-28.05h0Z"/><path class="cls-5" d="M141.23,547.79c-15.09,0-27.36-12.33-27.36-27.48s12.27-27.48,27.36-27.48,27.36,12.33,27.36,27.48-12.27,27.48-27.36,27.48Z"/><path class="cls-6" d="M141.23,493.41c14.77,0,26.78,12.07,26.78,26.9s-12.02,26.9-26.78,26.9-26.78-12.07-26.78-26.9,12.02-26.9,26.78-26.9M141.23,492.26c-15.43,0-27.94,12.56-27.94,28.05s12.51,28.05,27.94,28.05,27.94-12.56,27.94-28.05-12.51-28.05-27.94-28.05h0Z"/><polyline class="cls-3" points="56.24 221.54 56.24 1.26 214.8 1.26 214.8 221.54"/><rect class="cls-7" x="131.33" y="390.1" width="373.33" height="33.96" transform="translate(-89.09 725.07) rotate(-90)"/><circle class="cls-6" cx="141.23" cy="368.5" r="9.63"/><path class="cls-5" d="M140.67,372.39h-4.25v-.49l.7-.74c1.71-1.72,2.57-2.77,2.57-3.94,0-.77-.34-1.48-1.37-1.48-.58,0-1.09.32-1.44.59l-.27-.56c.44-.39,1.09-.7,1.86-.7,1.45,0,2.02,1.05,2.02,2.04,0,1.35-.95,2.5-2.43,4l-.57.59v.02h3.17v.65Z"/><path class="cls-5" d="M144.24,368.51c.84.14,1.56.82,1.56,1.86,0,1.14-.82,2.14-2.43,2.14-.72,0-1.37-.23-1.7-.46l.24-.61c.26.17.83.43,1.47.43,1.21,0,1.6-.84,1.6-1.5,0-1.05-.89-1.53-1.83-1.53h-.47v-.59h.47c.69,0,1.58-.43,1.58-1.33,0-.62-.37-1.16-1.24-1.16-.53,0-1.03.26-1.31.47l-.24-.58c.34-.27,1.02-.54,1.71-.54,1.31,0,1.9.83,1.9,1.7,0,.74-.47,1.4-1.3,1.7v.03Z"/><circle class="cls-6" cx="141.23" cy="444.41" r="9.63"/><path class="cls-5" d="M140.67,448.3h-4.25v-.49l.7-.74c1.71-1.72,2.57-2.77,2.57-3.94,0-.77-.34-1.48-1.37-1.48-.58,0-1.09.32-1.44.59l-.27-.56c.44-.39,1.09-.7,1.86-.7,1.45,0,2.02,1.05,2.02,2.04,0,1.35-.95,2.5-2.43,4l-.57.59v.02h3.17v.65Z"/><path class="cls-5" d="M145.32,448.3h-.76v-2.01h-3.13v-.51l3.07-4.66h.82v4.55h.98v.61h-.98v2.01ZM142.23,445.67h2.33v-2.55c0-.39.02-.78.04-1.15h-.04c-.22.44-.39.75-.58,1.07l-1.75,2.61v.02Z"/><circle class="cls-6" cx="141.23" cy="520.31" r="9.63"/><path class="cls-5" d="M140.67,524.2h-4.25v-.49l.7-.74c1.71-1.72,2.57-2.77,2.57-3.94,0-.77-.34-1.48-1.37-1.48-.58,0-1.09.32-1.44.59l-.27-.56c.44-.39,1.09-.7,1.86-.7,1.45,0,2.02,1.05,2.02,2.04,0,1.35-.95,2.5-2.43,4l-.57.59v.02h3.17v.65Z"/><path class="cls-5" d="M145.69,517.02v.66h-2.58l-.3,2.03c.15-.02.31-.04.56-.04,1.27,0,2.42.76,2.42,2.2s-1.05,2.43-2.47,2.43c-.72,0-1.32-.21-1.65-.42l.23-.62c.27.18.8.4,1.42.4.9,0,1.68-.66,1.67-1.7,0-.99-.63-1.68-1.97-1.68-.38,0-.68.03-.92.07l.45-3.34h3.15Z"/><polyline class="cls-1" points="63.74 335.47 63.74 375.43 63.74 335.47"/><circle class="cls-6" cx="79.63" cy="354.45" r="9.62"/><path class="cls-5" d="M79.07,358.34h-4.25v-.49l.7-.74c1.71-1.73,2.57-2.77,2.57-3.94,0-.77-.34-1.48-1.37-1.48-.58,0-1.09.32-1.44.59l-.27-.56c.44-.39,1.09-.7,1.86-.7,1.45,0,2.02,1.05,2.02,2.04,0,1.35-.95,2.5-2.43,4l-.57.59v.02h3.17v.65Z"/><path class="cls-5" d="M80.02,354.77c0-2.51.98-3.73,2.32-3.73s2.19,1.28,2.19,3.63c0,2.49-.87,3.78-2.3,3.78-1.3,0-2.21-1.28-2.21-3.68ZM83.73,354.72c0-1.79-.43-3.03-1.44-3.03-.85,0-1.46,1.14-1.46,3.03s.53,3.09,1.43,3.09c1.06,0,1.47-1.38,1.47-3.09Z"/><polyline class="cls-1" points="63.74 438.37 63.74 478.33 63.74 438.37"/><circle class="cls-6" cx="79.63" cy="458.35" r="9.63"/><path class="cls-5" d="M79.07,462.24h-4.25v-.49l.7-.74c1.71-1.72,2.57-2.77,2.57-3.94,0-.77-.34-1.48-1.37-1.48-.58,0-1.09.32-1.44.59l-.27-.56c.44-.39,1.09-.7,1.86-.7,1.45,0,2.02,1.05,2.02,2.04,0,1.35-.95,2.5-2.43,4l-.57.59v.02h3.17v.65Z"/><path class="cls-5" d="M82.13,462.24v-6.43h-.02l-1.18.68-.19-.59,1.49-.83h.68v7.18h-.78Z"/><polyline class="cls-1" points="63.74 543.49 63.74 583.45 63.74 543.49"/><circle class="cls-6" cx="79.63" cy="562.13" r="9.63"/><path class="cls-5" d="M79.07,566.02h-4.25v-.49l.7-.74c1.71-1.72,2.57-2.77,2.57-3.94,0-.77-.34-1.48-1.37-1.48-.58,0-1.09.32-1.44.59l-.27-.56c.44-.39,1.09-.7,1.86-.7,1.45,0,2.02,1.05,2.02,2.04,0,1.35-.95,2.5-2.43,4l-.57.59v.02h3.17v.65Z"/><path class="cls-5" d="M84.35,566.02h-4.25v-.49l.7-.74c1.71-1.72,2.57-2.77,2.57-3.94,0-.77-.34-1.48-1.37-1.48-.58,0-1.09.32-1.44.59l-.27-.56c.44-.39,1.09-.7,1.86-.7,1.45,0,2.02,1.05,2.02,2.04,0,1.35-.95,2.5-2.43,4l-.57.59v.02h3.17v.65Z"/><polyline class="cls-1" points="268.35 335.47 268.35 375.43 268.35 335.47"/><circle class="cls-6" cx="252.46" cy="354.45" r="9.62"/><path class="cls-5" d="M251.89,358.34h-4.25v-.49l.7-.74c1.71-1.73,2.57-2.77,2.57-3.94,0-.77-.34-1.48-1.37-1.48-.58,0-1.09.32-1.44.59l-.27-.56c.44-.39,1.09-.7,1.86-.7,1.45,0,2.02,1.05,2.02,2.04,0,1.35-.95,2.5-2.43,4l-.57.59v.02h3.17v.65Z"/><path class="cls-5" d="M253.67,354.53c.33-.48.91-.88,1.68-.88,1.22,0,2.03.91,2.03,2.29s-.8,2.51-2.2,2.51-2.34-1.16-2.34-3.02.9-3.94,3.23-4.32c.27-.04.51-.07.67-.07v.66c-1.98,0-2.93,1.45-3.09,2.83h.03ZM256.57,356c0-1.1-.59-1.74-1.46-1.74s-1.49.82-1.49,1.36c0,1.31.57,2.21,1.56,2.21.83,0,1.38-.75,1.38-1.83Z"/><polyline class="cls-1" points="268.35 438.37 268.35 478.33 268.35 438.37"/><circle class="cls-6" cx="252.46" cy="458.35" r="9.63"/><path class="cls-5" d="M251.89,462.24h-4.25v-.49l.7-.74c1.71-1.72,2.57-2.77,2.57-3.94,0-.77-.34-1.48-1.37-1.48-.58,0-1.09.32-1.44.59l-.27-.56c.44-.39,1.09-.7,1.86-.7,1.45,0,2.02,1.05,2.02,2.04,0,1.35-.95,2.5-2.43,4l-.57.59v.02h3.17v.65Z"/><path class="cls-5" d="M253.06,455.06h4.21v.51l-3,6.67h-.82l3-6.5v-.02h-3.39v-.66Z"/><polyline class="cls-1" points="67.72 39.97 67.72 79.93 67.72 39.97"/><circle class="cls-6" cx="83.61" cy="58.95" r="9.62"/><path class="cls-5" d="M80.82,62.84v-6.43h-.02l-1.18.68-.19-.59,1.49-.83h.68v7.18h-.78Z"/><path class="cls-5" d="M86.62,58.96c.84.14,1.56.82,1.56,1.86,0,1.14-.82,2.14-2.43,2.14-.72,0-1.37-.23-1.7-.46l.24-.61c.26.17.83.43,1.47.43,1.21,0,1.6-.84,1.6-1.5,0-1.05-.89-1.53-1.83-1.53h-.47v-.59h.47c.69,0,1.58-.43,1.58-1.33,0-.62-.37-1.16-1.24-1.16-.53,0-1.03.26-1.31.47l-.24-.58c.34-.27,1.02-.54,1.71-.54,1.31,0,1.9.83,1.9,1.7,0,.74-.47,1.4-1.3,1.7v.03Z"/><polyline class="cls-1" points="67.72 142.87 67.72 182.83 67.72 142.87"/><circle class="cls-6" cx="83.61" cy="162.85" r="9.63"/><path class="cls-5" d="M80.82,166.74v-6.43h-.02l-1.18.68-.19-.59,1.49-.83h.68v7.18h-.78Z"/><path class="cls-5" d="M88.07,159.56v.66h-2.58l-.3,2.03c.15-.02.31-.04.56-.04,1.27,0,2.42.76,2.42,2.2s-1.05,2.43-2.47,2.43c-.72,0-1.32-.21-1.65-.42l.23-.62c.27.18.8.4,1.42.4.9,0,1.68-.66,1.67-1.7,0-.99-.63-1.68-1.97-1.68-.38,0-.68.03-.92.07l.45-3.34h3.15Z"/><polyline class="cls-1" points="203.33 39.97 203.33 79.93 203.33 39.97"/><circle class="cls-6" cx="187.43" cy="58.95" r="9.62"/><path class="cls-5" d="M184.64,62.84v-6.43h-.02l-1.18.68-.19-.59,1.49-.83h.68v7.18h-.78Z"/><path class="cls-5" d="M191.52,62.84h-.76v-2.01h-3.13v-.51l3.07-4.66h.82v4.55h.98v.61h-.98v2.01ZM188.43,60.21h2.33v-2.55c0-.39.02-.78.04-1.15h-.04c-.22.44-.39.75-.58,1.07l-1.75,2.61v.02Z"/><polyline class="cls-1" points="203.33 142.87 203.33 182.83 203.33 142.87"/><circle class="cls-6" cx="187.43" cy="162.85" r="9.63"/><path class="cls-5" d="M184.65,166.74v-6.43h-.02l-1.18.68-.19-.59,1.49-.83h.68v7.18h-.78Z"/><path class="cls-5" d="M188.64,162.93c.33-.48.91-.88,1.68-.88,1.22,0,2.03.91,2.03,2.29s-.8,2.51-2.2,2.51-2.34-1.16-2.34-3.02.9-3.94,3.23-4.32c.27-.04.51-.07.67-.07v.66c-1.98,0-2.93,1.45-3.09,2.83h.03ZM191.55,164.4c0-1.1-.59-1.74-1.46-1.74s-1.49.82-1.49,1.36c0,1.31.57,2.21,1.56,2.21.83,0,1.38-.75,1.38-1.83Z"/><polyline class="cls-1" points="268.35 543.49 268.35 583.45 268.35 543.49"/><circle class="cls-6" cx="252.46" cy="562.13" r="9.63"/><path class="cls-5" d="M251.89,566.02h-4.25v-.49l.7-.74c1.71-1.72,2.57-2.77,2.57-3.94,0-.77-.34-1.48-1.37-1.48-.58,0-1.09.32-1.44.59l-.27-.56c.44-.39,1.09-.7,1.86-.7,1.45,0,2.02,1.05,2.02,2.04,0,1.35-.95,2.5-2.43,4l-.57.59v.02h3.17v.65Z"/><path class="cls-5" d="M254.26,562.21c-.78-.37-1.12-1.01-1.12-1.62,0-1.11.87-1.87,2.03-1.87,1.3,0,1.93.88,1.93,1.74,0,.61-.33,1.28-1.18,1.7v.04c.88.37,1.43,1.02,1.43,1.88,0,1.22-1,2.05-2.26,2.05-1.37,0-2.21-.87-2.21-1.91,0-.93.56-1.6,1.39-1.97v-.04ZM256.53,564.17c0-.9-.6-1.36-1.55-1.67-.84.28-1.29.89-1.29,1.6,0,.81.55,1.44,1.41,1.44.92,0,1.44-.62,1.44-1.37ZM253.9,560.52c0,.77.54,1.19,1.33,1.43.62-.24,1.09-.73,1.09-1.41,0-.6-.33-1.23-1.18-1.23s-1.25.58-1.25,1.21Z"/><polyline class="cls-1" points="106.23 302.97 146.19 302.97 106.23 302.97"/><circle class="cls-6" cx="125.21" cy="287.07" r="9.62"/><path class="cls-5" d="M122.41,290.96v-6.43h-.02l-1.18.68-.19-.59,1.49-.83h.68v7.18h-.78Z"/><path class="cls-5" d="M129.28,287.57c-.39.5-.95.8-1.65.8-1.23,0-1.98-.96-1.98-2.18,0-1.31.86-2.52,2.27-2.52s2.19,1.17,2.19,3c0,2.39-1.21,4.04-3.05,4.33-.33.06-.64.08-.85.07v-.66c.2.02.43,0,.74-.05,1.21-.17,2.12-1.15,2.36-2.79h-.03ZM126.46,286.14c0,.97.55,1.62,1.37,1.62.78,0,1.49-.59,1.49-1.17,0-1.38-.51-2.31-1.46-2.31-.83,0-1.4.79-1.4,1.86Z"/><polyline class="cls-1" points="106.23 225.72 146.19 225.72 106.23 225.72"/><circle class="cls-6" cx="125.21" cy="241.61" r="9.62"/><path class="cls-5" d="M122.42,245.5v-6.43h-.02l-1.18.68-.19-.59,1.49-.83h.68v7.18h-.78Z"/><path class="cls-5" d="M125.81,238.32h4.21v.51l-3,6.67h-.81l3-6.5v-.02h-3.39v-.66Z"/><polyline class="cls-1" points="216.94 225.72 256.9 225.72 216.94 225.72"/><circle class="cls-6" cx="235.92" cy="241.61" r="9.62"/><path class="cls-5" d="M233.13,245.5v-6.43h-.02l-1.18.68-.19-.59,1.49-.83h.68v7.18h-.78Z"/><path class="cls-5" d="M237.72,241.69c-.78-.37-1.12-1.01-1.12-1.62,0-1.11.87-1.87,2.03-1.87,1.3,0,1.93.88,1.93,1.74,0,.61-.33,1.28-1.18,1.7v.04c.88.37,1.43,1.02,1.43,1.88,0,1.22-1,2.05-2.26,2.05-1.37,0-2.21-.87-2.21-1.91,0-.93.56-1.6,1.39-1.97v-.04ZM239.99,243.65c0-.9-.6-1.36-1.55-1.67-.84.28-1.29.89-1.29,1.6,0,.81.55,1.44,1.41,1.44.92,0,1.44-.62,1.44-1.37ZM237.35,240c0,.77.54,1.19,1.33,1.43.62-.24,1.09-.73,1.09-1.41,0-.6-.33-1.23-1.18-1.23s-1.25.58-1.25,1.21Z"/><polyline class="cls-1" points="63.74 662.88 103.7 662.88 63.74 662.88"/><circle class="cls-6" cx="82.72" cy="646.98" r="9.62"/><path class="cls-5" d="M82.15,650.87h-4.25v-.49l.7-.74c1.71-1.72,2.57-2.77,2.57-3.94,0-.77-.34-1.48-1.37-1.48-.58,0-1.09.32-1.44.59l-.27-.56c.44-.39,1.09-.7,1.86-.7,1.45,0,2.02,1.05,2.02,2.04,0,1.35-.95,2.5-2.43,4l-.57.59v.02h3.17v.65Z"/><path class="cls-5" d="M86.8,647.48c-.39.5-.95.79-1.65.79-1.23,0-1.98-.96-1.98-2.17,0-1.31.86-2.52,2.27-2.52s2.19,1.17,2.19,3c0,2.39-1.21,4.04-3.05,4.33-.33.06-.64.08-.85.07v-.66c.2.02.43,0,.74-.05,1.21-.17,2.12-1.15,2.36-2.79h-.03ZM83.97,646.05c0,.97.55,1.62,1.37,1.62.78,0,1.49-.59,1.49-1.17,0-1.38-.51-2.31-1.46-2.31-.83,0-1.4.79-1.4,1.86Z"/><polyline class="cls-1" points="108.65 662.88 148.61 662.88 108.65 662.88"/><circle class="cls-6" cx="127.63" cy="646.98" r="9.62"/><path class="cls-5" d="M125.35,646.99c.84.14,1.56.82,1.56,1.86,0,1.14-.82,2.14-2.43,2.14-.72,0-1.37-.23-1.7-.46l.24-.61c.26.17.83.43,1.47.43,1.21,0,1.6-.84,1.6-1.5,0-1.05-.89-1.53-1.83-1.53h-.47v-.59h.47c.69,0,1.58-.43,1.58-1.33,0-.62-.37-1.16-1.24-1.16-.53,0-1.03.26-1.31.47l-.24-.58c.34-.27,1.02-.54,1.71-.54,1.31,0,1.9.83,1.9,1.7,0,.74-.47,1.4-1.3,1.7v.03Z"/><path class="cls-5" d="M128.01,647.31c0-2.51.98-3.73,2.32-3.73s2.19,1.28,2.19,3.63c0,2.49-.87,3.78-2.3,3.78-1.3,0-2.21-1.28-2.21-3.68ZM131.72,647.25c0-1.79-.43-3.03-1.44-3.03-.85,0-1.46,1.14-1.46,3.03s.53,3.09,1.43,3.09c1.06,0,1.47-1.38,1.47-3.09Z"/><polyline class="cls-1" points="153.55 662.88 193.51 662.88 153.55 662.88"/><circle class="cls-6" cx="172.53" cy="646.98" r="9.62"/><path class="cls-5" d="M170.26,646.99c.84.14,1.56.82,1.56,1.86,0,1.14-.82,2.14-2.43,2.14-.72,0-1.37-.23-1.7-.46l.24-.61c.26.17.83.43,1.47.43,1.21,0,1.6-.84,1.6-1.5,0-1.05-.89-1.53-1.83-1.53h-.47v-.59h.47c.69,0,1.58-.43,1.58-1.33,0-.62-.37-1.16-1.24-1.16-.53,0-1.03.26-1.31.47l-.24-.58c.34-.27,1.02-.54,1.71-.54,1.31,0,1.9.83,1.9,1.7,0,.74-.47,1.4-1.3,1.7v.03Z"/><path class="cls-5" d="M175.02,650.87v-6.43h-.02l-1.18.68-.19-.59,1.49-.83h.68v7.18h-.78Z"/><path class="cls-5" d="M218.01,752.21h5.09v1.09h-11.25v-1.09h5.03v-3.62h-3.41v-1.06h3.41v-2.47h-2.85l-1.05,2.25h-1.23l2.52-5.4h1.22l-.95,2.05h2.35v-2.32h1.13v2.32h4.14v1.09h-4.14v2.47h3.45v1.06h-3.45v3.62Z"/><path class="cls-5" d="M229.3,745.9h-1.48v7.69h-1.05v-7.69h-1.24v-1.03h1.24v-3.21h1.05v3.21h1.48v1.03ZM231.27,747.15l-.33,1.08h1.71v5.21h-2.08v-.91h1.09v-3.35h-1.01l-1.37,4.4h-1.08l1.36-4.4h-1.02v-.95h1.31l.33-1.08h1.09ZM229.16,746.94l2.31-3.29h-1.87v-1.01h2.57l.71-1.02h1.26l-.7,1.02h3.06v4.15h-2.64v-.98h1.59v-2.17h-2.72l-2.31,3.29h-1.26ZM235.53,748.23h1.72v5.21h-2.15v-.91h1.17v-3.35h-1.03l-1.36,4.4h-1.04l1.36-4.4h-1.13v-.95h1.42l.33-1.08h1.04l-.34,1.08Z"/><path class="cls-5" d="M249.2,749.42h-3.05l1.52,1.38,1.24-1.1h1.55l-2.03,1.8,2.29,2.08h-1.57l-4.58-4.17h-1.93v2.74l3.03-.95v1.1l-4.07,1.27v-8.54l-2.11,1.29v-1.22l5.91-3.62,5.9,3.58v1.23l-2.12-1.29v4.4ZM245.41,742.72l-3.4,2.08h2.87v-1.45h1.06v1.45h2.91l-3.44-2.08ZM248.15,745.8h-5.49v.83h5.49v-.83ZM242.65,747.6v.83h5.49v-.83h-5.49Z"/><path class="cls-5" d="M259.91,752.41h5.31v1.03h-11.67v-1.03h5.31v-1.5h-3.76v-1.04h3.76v-1.29h-2.88v-3.7h6.79v3.7h-2.87v1.29h3.76v1.04h-3.76v1.5ZM254.74,744.16v2.19h-1.05v-3.23h2.54l-.87-1.29h1.22l.87,1.29h1.4v-1.56h1.06v1.56h1.4l.87-1.29h1.22l-.87,1.29h2.54v3.23h-1.05v-2.19h-9.28ZM257.03,745.88v1.73h4.7v-1.73h-4.7Z"/><path class="cls-5" d="M17.45,406.37h3.59v1.03h-11.67v-1.03h6.85l.85-1.48h1.23l-.85,1.48ZM10.28,416.91v-8.5h4.51v8.5h-1.03v-3.21h-2.46v3.21h-1.02ZM13.76,409.42h-2.46v1.13h2.46v-1.13ZM11.3,412.69h2.46v-1.13h-2.46v1.13ZM13.79,406.11h-1.23l-.71-1.22h1.24l.7,1.22ZM16.03,414.9v-5.9h1.05v5.9h-1.05ZM19.03,416.91v-8.61h1.08v8.61h-1.08Z"/><path class="cls-5" d="M34.81,406.64h-9.85v8.92s-.6,1.36-.6,1.36h-1.16l.69-1.5v-9.78s5.03,0,5.03,0v-.78h1.05v.78h4.85v1.01ZM28.73,415.84h6.36v.95h-6.96l-.91-1.62-.81,1.75h-1.06l1.27-2.78-.98-1.75h1.13l.36.64.62-1.34h-2.05l1.4-3.02h-1.75v-1.01h3.27l-1.38,3.02h2.04l-1.55,3.38,1.01,1.78ZM34.99,411.39h-2.29v2.77h1.79v.98h-4.7v-.98h1.87v-2.77h-2.17v-.99h2.17v-1.45l-1.85.43v-1.02l4.58-1.06v1.02l-1.71.39v1.69h2.29v.99Z"/></g></svg>