<?xml version="1.0" encoding="UTF-8"?><svg id="_レイヤー_2" xmlns="http://www.w3.org/2000/svg" width="156.9mm" height="283.68mm" viewBox="0 0 444.75 804.13"><defs><style>.cls-1{stroke-width:2.71px;}.cls-1,.cls-2,.cls-3,.cls-4,.cls-5{stroke:#00a0e9;stroke-miterlimit:10;}.cls-1,.cls-2,.cls-5,.cls-6{fill:#fff;}.cls-2{stroke-width:2.08px;}.cls-7,.cls-8,.cls-9,.cls-6{stroke-width:0px;}.cls-7,.cls-4{fill:#00a0e9;}.cls-3{fill:none;stroke-width:2.36px;}.cls-8{fill:#231815;}.cls-4{stroke-width:2.37px;}.cls-5{stroke-width:3.45px;}.cls-9{fill:#c9caca;}</style></defs><g id="_レイヤー_1-2"><rect class="cls-9" x="385.5" y="196.34" width="58.07" height="73.05"/><polygon class="cls-9" points="220.48 269.39 220.48 160.63 23.41 160.63 23.41 802.95 220.48 802.95 220.48 306.21 443.56 306.21 443.56 269.39 220.48 269.39"/><rect class="cls-4" x="42.15" y="-17.55" width="159.44" height="196.92" transform="translate(40.96 202.77) rotate(-90)"/><rect class="cls-1" x="124.46" y="173.52" width="73.05" height="118.68" transform="translate(-71.88 393.85) rotate(-90)"/><rect class="cls-5" x="101.65" y="556.89" width="118.68" height="118.68" transform="translate(-455.24 777.21) rotate(-90)"/><path class="cls-6" d="M106.39,83.76h3.85v.83h-8.52v-.83h3.81v-2.74h-2.58v-.8h2.58v-1.88h-2.16l-.79,1.71h-.93l1.91-4.09h.92l-.72,1.56h1.78v-1.76h.86v1.76h3.13v.83h-3.13v1.88h2.62v.8h-2.62v2.74Z"/><path class="cls-6" d="M114.95,78.98h-1.12v5.82h-.79v-5.82h-.94v-.78h.94v-2.44h.79v2.44h1.12v.78ZM116.44,79.93l-.25.82h1.29v3.95h-1.58v-.69h.83v-2.54h-.76l-1.04,3.34h-.82l1.03-3.34h-.77v-.72h1l.25-.82h.83ZM114.84,79.77l1.75-2.49h-1.42v-.76h1.95l.54-.77h.95l-.53.77h2.32v3.15h-2v-.74h1.21v-1.64h-2.06l-1.75,2.49h-.95ZM119.67,80.74h1.3v3.95h-1.63v-.69h.89v-2.54h-.78l-1.03,3.34h-.78l1.03-3.34h-.86v-.72h1.08l.25-.82h.78l-.25.82Z"/><path class="cls-6" d="M122.79,84.8l.6-1.84h.8l-.6,1.84h-.8ZM125.61,75.97v6.78h-2.64v-6.78h2.64ZM124.88,76.71h-1.17v1.13h1.17v-1.13ZM124.88,78.58h-1.17v1.27h1.17v-1.27ZM123.72,81.99h1.17v-1.4h-1.17v1.4ZM124.42,82.96h.83l.5,1.54h-.83l-.5-1.54ZM131.63,82.8v.69h-.66v1.31h-.79v-1.31h-3.08v1.31h-.79v-1.31h-.66v-.69h.66v-2.56h1.95v-.46h-2.54v-.73h1.56v-.6h-1.15v-.7h1.15v-.59h-1.32v-.74h1.32v-.72h.77v.72h1.19v-.72h.78v.72h1.32v.74h-1.32v.59h1.15v.7h-1.15v.6h1.56v.73h-2.54v.46h1.95v2.56h.66ZM128.25,80.93h-1.15v.59h1.15v-.59ZM127.1,82.22v.58h1.15v-.58h-1.15ZM128.04,77.15v.59h1.19v-.59h-1.19ZM128.04,78.45v.6h1.19v-.6h-1.19ZM130.18,80.93h-1.15v.59h1.15v-.59ZM129.02,82.8h1.15v-.58h-1.15v.58Z"/><path class="cls-6" d="M141.75,75.9v2.46h-8.01v-2.46h8.01ZM133.79,84.8l1.37-1.14h1.26l-1.36,1.14h-1.27ZM134.55,76.66v.95h1.62v-.95h-1.62ZM140.89,83.4h-6.26v-4.66h6.26v4.66ZM140.07,79.5h-4.65v.58h4.65v-.58ZM135.42,81.38h4.65v-.54h-4.65v.54ZM135.42,82.64h4.65v-.51h-4.65v.51ZM138.56,76.66h-1.61v.95h1.61v-.95ZM140.41,83.66l1.36,1.14h-1.27l-1.36-1.14h1.27ZM140.95,77.61v-.95h-1.62v.95h1.62Z"/><polygon class="cls-3" points="23.41 160.53 26.15 160.53 26.15 196.04 23.41 196.04 23.41 520.88 26.15 520.88 26.15 556.38 23.41 556.38 23.41 802.95 86.54 802.95 157.35 802.95 220.48 802.95 220.48 556.38 217.74 556.38 217.74 520.88 220.48 520.88 220.48 306.21 443.56 306.21 443.56 269.39 443.56 196.34 385.5 196.34 385.5 269.39 220.48 269.39 220.48 196.04 217.74 196.04 217.74 160.53 220.48 160.53 220.48 1.72 162.26 1.72 157.35 1.72 86.54 1.72 23.41 1.72 23.41 160.53"/><polyline class="cls-2" points="171.77 261.84 211.72 261.84 171.77 261.84"/><circle class="cls-7" cx="190.75" cy="245.95" r="9.62"/><path class="cls-6" d="M187.96,249.83v-6.43h-.02l-1.18.68-.19-.59,1.49-.83h.68v7.18h-.78Z"/><path class="cls-6" d="M195.46,249.83h-4.25v-.49l.7-.74c1.71-1.73,2.57-2.77,2.57-3.94,0-.77-.34-1.48-1.37-1.48-.58,0-1.09.32-1.44.59l-.27-.56c.44-.39,1.09-.7,1.86-.7,1.45,0,2.02,1.05,2.02,2.04,0,1.35-.95,2.5-2.43,4l-.57.59v.02h3.17v.65Z"/><polyline class="cls-2" points="110.25 203.89 150.21 203.89 110.25 203.89"/><circle class="cls-7" cx="129.23" cy="219.78" r="9.62"/><path class="cls-6" d="M126.44,223.67v-6.43h-.02l-1.18.68-.19-.59,1.49-.83h.68v7.18h-.78Z"/><path class="cls-6" d="M131.72,223.67v-6.43h-.02l-1.18.68-.19-.59,1.49-.83h.68v7.18h-.78Z"/><path class="cls-7" d="M131.52,615.2l-3.42,1.26v1.65l3.61.83v.77l-4.43-1.02v-2.71l2.15-.78h-4.24v-.78h1.98l1.08-.75-1.59-2.15h.99l1.26,1.69,2.73-1.91v.95l-3.1,2.16h4.69v.78h-1.72Z"/><path class="cls-7" d="M137.27,612.76h6.43v5.06l-1.16,1.66h-2.53v-.75h2.11l.82-1.16v-4.06h-1.11l-4.06,5.71h-1.81v-4.47l1.32-1.99ZM137.36,618.46l3.53-4.96h-3.2l-.96,1.46v3.49h.64Z"/><path class="cls-7" d="M148.83,611.06l-1.06,2.64v6.42h-.77v-4.47l-.21.53h-.83l2.05-5.12h.82ZM149.95,619.24h4.92v.77h-5.73v-4.98l-.92.33v-.82l.92-.33v-2.61h.8v2.32l1.28-.46v-2.42h.79v2.14l2.8-1-.8,6.03h-1.29v-.72h.6l.55-4.16-1.85.66v3.45h-.79v-3.17l-1.28.46v4.49Z"/><path class="cls-7" d="M164.69,612.8v.76h-1.31l-2.41,5.98h-.86l2.41-5.98h-3.1v3.31h-.78v-3.31h-1.36v-.76h1.36v-1.26h.78v1.26h3.42l.51-1.26h.86l-.51,1.26h1Z"/><path class="cls-7" d="M175.24,616.05h-7.33v-.8h7.33v.8Z"/><path class="cls-7" d="M186.04,612.36l-5.03,7.18h-.98l4.48-6.4h-3.42l-1.74,2.49h-1l2.87-4.1h1l-.58.83h4.4Z"/><path class="cls-7" d="M191.05,613.12h.85l-2.34,6.43h-.85l2.34-6.43ZM193.52,618.47l3.24-2.71v1.04l-3.24,2.72h-.8v-7.69h.8v6.64Z"/><path class="cls-8" d="M5.7,177.44c1.23.53,1.83,1.62,1.83,2.64,0,1.34-.94,3.05-3.34,3.05-2.26,0-3.24-1.43-3.65-2.63l.94-.35c.64,1.83,2.03,1.97,2.66,1.97.78,0,2.38-.32,2.38-1.97,0-1.86-1.69-2.18-2.6-2.18v-.99c1.05,0,2.33-.39,2.33-1.71s-1.37-1.68-2.08-1.68-1.76.2-2.54,1.36l-.84-.56c.46-.81,1.59-1.8,3.38-1.8s3.1,1.22,3.1,2.64c0,1.19-.64,1.86-1.57,2.21Z"/><path class="cls-8" d="M15.41,173.72h-5.33v3.7h4.86v1.03h-4.86v4.57h-1.05v-10.34h6.37v1.03Z"/><path class="cls-8" d="M231.96,172.8h2.53v10.23h-1.05v-9.22h-1.48v-1.01Z"/><path class="cls-8" d="M243.49,173.72h-5.33v3.7h4.86v1.03h-4.86v4.57h-1.05v-10.34h6.37v1.03Z"/><path class="cls-8" d="M5.7,537.19c1.23.53,1.83,1.62,1.83,2.64,0,1.34-.94,3.05-3.34,3.05-2.26,0-3.24-1.43-3.65-2.63l.94-.35c.64,1.83,2.03,1.97,2.66,1.97.78,0,2.38-.32,2.38-1.97,0-1.86-1.69-2.18-2.6-2.18v-.99c1.05,0,2.33-.39,2.33-1.71s-1.37-1.68-2.08-1.68-1.76.2-2.54,1.36l-.84-.56c.46-.81,1.59-1.8,3.38-1.8s3.1,1.22,3.1,2.64c0,1.19-.64,1.86-1.57,2.21Z"/><path class="cls-8" d="M15.41,533.47h-5.33v3.7h4.86v1.03h-4.86v4.57h-1.05v-10.34h6.37v1.03Z"/><path class="cls-8" d="M231.96,532.55h2.53v10.23h-1.05v-9.22h-1.48v-1.01Z"/><path class="cls-8" d="M243.49,533.47h-5.33v3.7h4.86v1.03h-4.86v4.57h-1.05v-10.34h6.37v1.03Z"/></g></svg>