<?xml version="1.0" encoding="UTF-8"?><svg id="_レイヤー_2" xmlns="http://www.w3.org/2000/svg" width="172.85mm" height="292.75mm" viewBox="0 0 489.97 829.84"><defs><style>.cls-1{stroke-width:2.08px;}.cls-1,.cls-2{stroke:#00a0e9;stroke-miterlimit:10;}.cls-1,.cls-3{fill:#fff;}.cls-4{fill:#00a0e9;}.cls-4,.cls-5,.cls-6,.cls-3{stroke-width:0px;}.cls-5{fill:#231815;}.cls-2{fill:none;stroke-width:5.35px;}.cls-6{fill:#c9caca;}</style></defs><g id="_レイヤー_1-2"><rect class="cls-6" x="233.83" y="215.86" width="36.38" height="36.38" transform="translate(17.96 486.07) rotate(-90)"/><rect class="cls-6" x="233.83" y="593.97" width="36.38" height="36.38" transform="translate(-360.14 864.17) rotate(-90)"/><polygon class="cls-2" points="327.17 26.45 176.86 26.45 176.86 2.68 42.87 2.68 42.87 165.41 48.68 165.41 48.68 201.79 42.87 201.79 42.87 690.04 48.68 690.04 48.68 726.42 42.87 726.42 42.87 823.69 176.86 823.69 176.86 809 327.17 809 327.17 823.69 461.16 823.69 461.16 571.03 455.35 571.03 455.35 534.65 461.16 534.65 461.16 201.79 455.35 201.79 455.35 165.41 461.16 165.41 461.16 2.68 327.17 2.68 327.17 26.45"/><polyline class="cls-1" points="77.58 466.2 77.58 506.16 77.58 466.2"/><polyline class="cls-1" points="77.58 384.74 77.58 424.69 77.58 384.74"/><polyline class="cls-1" points="77.58 305.63 77.58 345.58 77.58 305.63"/><polyline class="cls-1" points="77.58 224.81 77.58 264.77 77.58 224.81"/><polyline class="cls-1" points="77.58 583.15 77.58 623.11 77.58 583.15"/><circle class="cls-4" cx="93.48" cy="243.79" r="9.63"/><path class="cls-3" d="M93.33,247.67v-6.43h-.02l-1.18.68-.19-.59,1.49-.83h.68v7.18h-.78Z"/><circle class="cls-4" cx="93.48" cy="325.6" r="9.63"/><path class="cls-3" d="M95.55,329.49h-4.24v-.49l.7-.74c1.71-1.72,2.57-2.77,2.57-3.94,0-.77-.34-1.48-1.37-1.48-.57,0-1.09.32-1.44.59l-.27-.56c.44-.39,1.09-.7,1.86-.7,1.45,0,2.02,1.05,2.02,2.04,0,1.35-.95,2.5-2.43,4l-.56.59v.02h3.17v.65Z"/><circle class="cls-4" cx="93.48" cy="404.71" r="9.63"/><path class="cls-3" d="M93.85,404.72c.84.14,1.56.82,1.56,1.86,0,1.14-.82,2.14-2.43,2.14-.72,0-1.37-.23-1.7-.46l.24-.61c.26.17.83.43,1.47.43,1.21,0,1.6-.84,1.6-1.5,0-1.05-.89-1.53-1.83-1.53h-.47v-.59h.47c.69,0,1.58-.43,1.58-1.33,0-.62-.37-1.16-1.24-1.16-.53,0-1.02.26-1.31.47l-.24-.58c.35-.27,1.02-.54,1.71-.54,1.31,0,1.9.83,1.9,1.7,0,.74-.47,1.4-1.3,1.7v.03Z"/><circle class="cls-4" cx="93.48" cy="486.18" r="9.63"/><path class="cls-3" d="M94.92,490.07h-.76v-2.01h-3.13v-.51l3.07-4.66h.82v4.55h.98v.61h-.98v2.01ZM91.83,487.44h2.33v-2.55c0-.39.02-.78.04-1.15h-.04c-.22.44-.39.75-.58,1.07l-1.75,2.61v.02Z"/><circle class="cls-4" cx="93.48" cy="601.79" r="9.63"/><path class="cls-3" d="M95.29,598.5v.66h-2.58l-.3,2.03c.15-.02.31-.04.56-.04,1.27,0,2.42.76,2.42,2.2s-1.05,2.43-2.47,2.43c-.72,0-1.32-.21-1.65-.42l.23-.62c.27.18.8.4,1.42.4.9,0,1.68-.66,1.67-1.7,0-.99-.63-1.68-1.97-1.68-.38,0-.68.03-.92.07l.45-3.34h3.15Z"/><polyline class="cls-1" points="426.45 466.2 426.45 506.16 426.45 466.2"/><polyline class="cls-1" points="426.45 384.74 426.45 424.69 426.45 384.74"/><polyline class="cls-1" points="426.45 305.63 426.45 345.58 426.45 305.63"/><polyline class="cls-1" points="426.45 224.81 426.45 264.77 426.45 224.81"/><polyline class="cls-1" points="426.45 583.15 426.45 623.11 426.45 583.15"/><circle class="cls-4" cx="410.55" cy="243.79" r="9.63"/><path class="cls-3" d="M409.12,243.87c.33-.48.91-.88,1.68-.88,1.22,0,2.03.91,2.03,2.29s-.81,2.51-2.2,2.51-2.34-1.16-2.34-3.02.9-3.94,3.23-4.32c.27-.04.51-.07.67-.07v.66c-1.98,0-2.93,1.45-3.09,2.83h.03ZM412.03,245.34c0-1.1-.59-1.74-1.46-1.74s-1.49.82-1.49,1.36c0,1.31.57,2.21,1.56,2.21.83,0,1.38-.75,1.38-1.83Z"/><circle class="cls-4" cx="410.55" cy="325.6" r="9.63"/><path class="cls-3" d="M408.52,322.32h4.21v.51l-3,6.67h-.81l3-6.5v-.02h-3.39v-.66Z"/><circle class="cls-4" cx="410.55" cy="404.71" r="9.63"/><path class="cls-3" d="M409.72,404.8c-.78-.37-1.12-1.01-1.12-1.62,0-1.11.87-1.87,2.03-1.87,1.3,0,1.93.88,1.93,1.74,0,.61-.33,1.28-1.18,1.7v.04c.88.37,1.43,1.02,1.43,1.88,0,1.22-1,2.05-2.26,2.05-1.37,0-2.21-.87-2.21-1.91,0-.93.56-1.6,1.39-1.97v-.04ZM411.99,406.75c0-.9-.6-1.36-1.55-1.67-.84.28-1.29.89-1.29,1.6,0,.81.55,1.44,1.41,1.44.92,0,1.44-.62,1.44-1.37ZM409.35,403.1c0,.77.54,1.19,1.33,1.43.62-.24,1.09-.73,1.09-1.41,0-.6-.33-1.23-1.18-1.23s-1.25.58-1.25,1.21Z"/><circle class="cls-4" cx="410.55" cy="486.18" r="9.63"/><path class="cls-3" d="M411.99,486.67c-.39.5-.95.8-1.65.8-1.23,0-1.98-.96-1.98-2.18,0-1.31.86-2.52,2.27-2.52s2.2,1.17,2.2,3c0,2.39-1.21,4.04-3.05,4.33-.33.06-.64.08-.85.07v-.66c.2.02.43,0,.74-.05,1.21-.17,2.12-1.15,2.36-2.79h-.03ZM409.17,485.24c0,.97.55,1.62,1.37,1.62.78,0,1.49-.59,1.49-1.17,0-1.38-.51-2.31-1.46-2.31-.83,0-1.4.79-1.4,1.86Z"/><circle class="cls-4" cx="410.55" cy="601.79" r="9.63"/><path class="cls-3" d="M407.77,605.68v-6.43h-.02l-1.18.68-.19-.59,1.49-.83h.68v7.18h-.78Z"/><path class="cls-3" d="M410.94,602.11c0-2.51.98-3.73,2.32-3.73s2.19,1.28,2.19,3.63c0,2.49-.87,3.78-2.3,3.78-1.3,0-2.21-1.28-2.21-3.68ZM414.65,602.06c0-1.79-.43-3.03-1.44-3.03-.85,0-1.46,1.14-1.46,3.03s.53,3.09,1.43,3.09c1.06,0,1.47-1.38,1.47-3.09Z"/><path class="cls-5" d="M5,703.38l-1.33,3.19v8.76h-1.05v-6.25l-.41.98h-1.15l2.8-6.68h1.13ZM12.9,713.71l-3.73-5.28v4.3h2v.95h-2v1.65h-1.03v-1.65h-2v-.95h2v-4.24l-3.7,5.26v-1.72l3.7-5.25v-.5h-3.7v-1.03h3.7v-1.86h1.03v1.86h3.7v1.03h-3.7v.39l3.73,5.3v1.75Z"/><path class="cls-5" d="M20.86,705.52l-1.93,1.61h5.21l-.64-1.02h1.29l1.72,2.77h-1.29l-.43-.71h-8.85v-1.03h1.33l1.93-1.61h-4.14v-1.03h5.37v-1.17h1.06v1.17h5.38v1.03h-6.01ZM17.1,715.33v-6.55h7.77v6.55h-1.06v-1.82h-5.65v1.82h-1.06ZM23.81,709.81h-5.65v.82h5.65v-.82ZM18.17,712.48h5.65v-.82h-5.65v.82Z"/><path class="cls-5" d="M34.38,706.15l-2.25-1.57-3.09,2.36v-1.33l3-2.31,2.33,1.63v1.2ZM31.96,711.42h1.15l1.76,3h-1.16l-.46-.8-3.56,1.43v-8.46h1.97v-1.44h.95v1.44h1.62v4.39h-3.56v2.66l2.11-.84-.81-1.38ZM33.26,707.52h-2.6v.81h2.6v-.81ZM30.66,710.05h2.6v-.81h-2.6v.81ZM39.84,709.92h-3.48v.85h4.03v4.42h-5.02v-8.39h-.89v-2.45h2.66v-1.05h1.05v1.05h2.61v2.45h-.95v3.12ZM35.47,706.26h4.32v-.94h-4.32v.94ZM38.83,708.94v-1.71h-2.47v1.71h2.47ZM39.38,711.75h-3.02v2.46h3.02v-2.46Z"/><path class="cls-5" d="M20.49,186.51v.99h-1.23v2.01h-.99v-2.01h-4.93v-1.08l4.49-7.25h1.44v7.34h1.23ZM14.39,186.51h3.87v-6.26l-3.87,6.26Z"/><path class="cls-5" d="M28.79,180.21h-5.33v3.7h4.86v1.03h-4.86v4.57h-1.05v-10.34h6.37v1.03Z"/><path class="cls-5" d="M474.6,181.71c.1-.68,1.01-2.64,3.37-2.64,3.03,0,4.53,3.06,1.8,5.67-.81.78-2.68,2.59-3.89,3.73h5.46v1.03h-6.72v-1.13l4.54-4.46c1.82-1.77,1.01-3.9-1.16-3.9-1.98,0-2.43,1.99-2.43,1.99l-.98-.29Z"/><path class="cls-5" d="M489.21,180.21h-5.33v3.7h4.86v1.03h-4.86v4.57h-1.05v-10.34h6.37v1.03Z"/><path class="cls-5" d="M474.6,548.89c.1-.68,1.01-2.64,3.37-2.64,3.03,0,4.53,3.06,1.8,5.67-.81.78-2.68,2.59-3.89,3.73h5.46v1.03h-6.72v-1.13l4.54-4.46c1.82-1.77,1.01-3.9-1.16-3.9-1.99,0-2.43,1.99-2.43,1.99l-.98-.29Z"/><path class="cls-5" d="M489.21,547.38h-5.33v3.7h4.86v1.03h-4.86v4.57h-1.05v-10.34h6.37v1.03Z"/><path class="cls-5" d="M233.91,10.24c1.23.53,1.83,1.62,1.83,2.64,0,1.34-.94,3.05-3.34,3.05-2.26,0-3.24-1.43-3.65-2.63l.94-.35c.64,1.83,2.03,1.97,2.66,1.97.78,0,2.38-.32,2.38-1.97,0-1.86-1.69-2.18-2.6-2.18v-.99c1.05,0,2.33-.39,2.33-1.71s-1.37-1.68-2.08-1.68-1.76.2-2.54,1.36l-.84-.56c.46-.81,1.59-1.8,3.38-1.8s3.1,1.22,3.1,2.64c0,1.19-.64,1.86-1.57,2.21Z"/><path class="cls-5" d="M243.62,6.52h-5.33v3.7h4.86v1.03h-4.86v4.57h-1.05V5.49h6.37v1.03Z"/><path class="cls-5" d="M260.57,5.87v1.03h-11.39v-1.03h5.16v-1.3h1.08v1.3h5.16ZM260.74,16.59h-1.27l-.6-1.03-9.43.62v-1.03l2.19-.14,1.82-1.87-3.02-2.28,3.51-3.61h1.51l-3.38,3.49,2.14,1.62,2.79-2.89h1.52l-5.27,5.42,5.03-.32-.99-1.68h1.27l2.18,3.7Z"/><path class="cls-5" d="M268.31,4.69v4.5h-3.97v7.39h-1.06V4.69h5.03ZM267.26,5.71h-2.92v.75h2.92v-.75ZM264.34,8.19h2.92v-.75h-2.92v.75ZM269.36,11.83v.74h3.21v.95h-3.21v.33l2.74,1.34v1.17l-3.23-1.57-3.33,1.51v-1.17l2.78-1.26v-.36h-2.96v-.95h2.96v-.74h-2.68v-.95h3.49l.96-1.37h1.29l-.96,1.37h1.63v.95h-2.7ZM266.35,9.51h1.26l.84,1.2h-1.26l-.84-1.2ZM269.25,4.69h5.16v11.89h-1.06v-7.39h-4.09v-4.5ZM273.34,5.71h-3.05v.75h3.05v-.75ZM270.29,8.19h3.05v-.75h-3.05v.75Z"/><path class="cls-5" d="M235.53,816.8l-1.37,2.36h2.46v6.65h-3.42v-5l-1.16,2.01v-2.08l2.28-3.94h-2.17v-1.03h4.86v1.03h-1.48ZM234.23,820.17v4.64h1.36v-4.64h-1.36ZM243.96,820.2v1.03h-1.66v5.86h-1.06v-5.86h-2.08l-.99,5.86h-1.03l.99-5.86h-1.37v-1.03h1.54l.6-3.54h-1.72v-1.03h6.4v1.03h-1.27v3.54h1.66ZM239.33,820.2h1.9v-3.54h-1.3l-.6,3.54Z"/><path class="cls-5" d="M255.72,825.96h2.21v1.01h-3.3v-4.6h-3.3l-3.82,4.72h-1.4l3.8-4.72h-3.01v-1.05h3.86l1.03-1.29h1.4l-1.03,1.29h3.55v4.64ZM250.59,817.32l-2.7,3.34h-1.37l2.68-3.34h1.38ZM247.69,816.91v1.29h-1.09v-2.29h4.91v-.84h1.05v.84h4.92v2.29h-1.09v-1.29h-8.69ZM252.31,817.18h1.06v1.5h4.38v1.01h-5.44v-2.5Z"/><path class="cls-5" d="M264.3,823.02h-1.19l-.38-.54v4.61h-1.02v-4.09l-1.62,2.31v-1.72l1.62-2.31v-2.77h-1.62v-1.01h1.62v-2.36h1.02v2.36h1.43v1.01h-1.43v2.29l1.57,2.22ZM271.9,825.73v1.26l-3.41-2.87v2.96h-.98v-2.93l-3.4,2.87v-1.29l3.4-2.87v-.06h-2.87v-4.89h2.87v-.84h-3.4v-1.03h3.4v-.91h.98v.91h3.4v1.03h-3.4v.84h2.85v4.89h-2.85v.04l3.41,2.88ZM267.51,818.9h-1.89v.91h1.89v-.91ZM265.63,821.83h1.89v-1.08h-1.89v1.08ZM270.34,818.9h-1.84v.91h1.84v-.91ZM268.49,821.83h1.84v-1.08h-1.84v1.08Z"/></g></svg>