<?xml version="1.0" encoding="UTF-8"?><svg id="_レイヤー_1" xmlns="http://www.w3.org/2000/svg" width="112.11mm" height="63.37mm" viewBox="0 0 317.79 179.64"><defs><style>.cls-1{fill:#231815;}.cls-1,.cls-2{stroke-width:0px;}.cls-2{fill:#040000;}</style></defs><polygon class="cls-2" points="186.3 113.74 186.3 116.15 182.93 117.65 182.93 125.77 180.52 125.77 180.52 118.72 175.48 120.95 175.48 118.55 186.3 113.74"/><rect class="cls-2" x="130.29" y="113.74" width="10.82" height="2.4"/><polygon class="cls-2" points="130.29 117.35 141.11 117.35 141.11 125.77 138.71 125.77 138.71 119.75 130.29 119.75 130.29 117.35"/><rect class="cls-2" x="85.1" y="113.74" width="10.82" height="2.4"/><rect class="cls-2" x="85.1" y="123.36" width="10.82" height="2.4"/><rect class="cls-2" x="85.1" y="118.55" width="10.82" height="2.4"/><rect class="cls-2" x="218.27" y="113.76" width="7.21" height="2.4"/><rect class="cls-2" x="226.67" y="113.76" width="2.41" height="2.4"/><rect class="cls-2" x="226.69" y="117.36" width="2.4" height="8.42"/><rect class="cls-2" x="230.29" y="113.74" width="2.4" height="2.4"/><polygon class="cls-2" points="173.09 96.98 162.62 96.98 147.65 59.29 132.69 96.98 122.2 96.98 142.4 46.08 152.89 46.08 173.09 96.98"/><polygon class="cls-2" points="247.21 46.08 226.99 96.98 216.51 96.98 196.31 46.08 206.79 46.08 221.75 83.76 236.72 46.08 247.21 46.08"/><polygon class="cls-2" points="129.63 46.09 129.63 56.56 108.66 56.56 108.66 96.98 98.18 96.98 98.18 46.09 129.63 46.09"/><rect class="cls-2" x="53.71" y="46.08" width="10.49" height="50.9"/><rect class="cls-2" x="33.51" y="46.08" width="10.49" height="31.46"/><rect class="cls-2" x="13.32" y="46.08" width="10.49" height="50.9"/><rect class="cls-2" x="75.95" y="46.08" width="10.49" height="50.9"/><rect class="cls-2" x="75.95" y="25.12" width="10.49" height="10.49"/><rect class="cls-2" x="178.56" y="46.08" width="10.49" height="50.9"/><rect class="cls-2" x="178.56" y="25.12" width="10.49" height="10.49"/><rect class="cls-2" x="253.58" y="87.45" width="50.9" height="9.53"/><rect class="cls-2" x="253.58" y="66.77" width="31.45" height="9.53"/><rect class="cls-2" x="253.58" y="46.07" width="50.9" height="9.53"/><path class="cls-1" d="M30.93,141.58v5.59c0,2.59-1.37,3.98-3.98,3.98h-11c-2.59,0-3.98-1.38-3.98-3.98v-5.59c0-2.59,1.38-3.98,3.98-3.98h11c2.6,0,3.98,1.38,3.98,3.98ZM17.13,149.2h8.64c2.6,0,3.03-.43,3.03-3.03v-3.6c0-2.6-.43-3.03-3.03-3.03h-8.64c-2.59,0-3.03.43-3.03,3.03v3.6c0,2.6.43,3.03,3.03,3.03Z"/><path class="cls-1" d="M58.8,137.6v1.94h-14.95v3.86h6.07v1.93h-6.07v5.8h-2.05v-13.54h17Z"/><path class="cls-1" d="M85.21,137.6v1.94h-14.95v3.86h6.07v1.93h-6.07v5.8h-2.05v-13.54h17Z"/><path class="cls-1" d="M96.77,137.6v11.6h15.17v1.94h-17.33v-13.54h2.16Z"/><path class="cls-1" d="M124.37,137.6v13.54h-2.13v-13.54h2.13Z"/><path class="cls-1" d="M150.52,151.15l-12.95-11.27v11.27h-2.13v-13.54h2.64l15.28,13.23v.31h-2.83ZM151.07,137.6h2.13v6.77h-2.13v-6.77Z"/><path class="cls-1" d="M164.41,137.6h15.89v1.94h-15.89v-1.94ZM164.41,149.2h16.11v1.94h-16.11v-1.94ZM170.3,143.41v1.93h-5.73v-1.93h5.73Z"/><path class="cls-1" d="M217.69,140.87v1.2c0,2.14-1.14,3.27-3.27,3.27h-10.89c-1.38,0-1.62.23-1.62,1.62v2.24h16.02v1.94h-18.15v-4.47c0-2.14,1.14-3.27,3.27-3.27h10.89c1.38,0,1.62-.23,1.62-1.62v-.63c0-1.39-.23-1.62-1.62-1.62h-13.36v-1.94h13.83c2.13,0,3.27,1.13,3.27,3.27Z"/><path class="cls-1" d="M247.57,141.52v5.59c0,2.59-1.37,3.98-3.98,3.98h-11c-2.59,0-3.98-1.38-3.98-3.98v-5.59c0-2.59,1.38-3.98,3.98-3.98h11c2.6,0,3.98,1.38,3.98,3.98ZM245.32,140.89c-.25-1.17-.99-1.4-2.91-1.4h-8.64c-2.59,0-3.03.43-3.03,3.03v3.35l14.58-4.97ZM233.77,149.14h8.64c2.6,0,3.03-.43,3.03-3.03v-3.23l-14.55,4.96c.28,1.07,1.03,1.3,2.88,1.3Z"/><path class="cls-1" d="M276.16,140.87v1.2c0,2.14-1.14,3.27-3.27,3.27h-10.89c-1.38,0-1.62.23-1.62,1.62v2.24h16.02v1.94h-18.15v-4.47c0-2.14,1.14-3.27,3.27-3.27h10.89c1.38,0,1.62-.23,1.62-1.62v-.63c0-1.39-.23-1.62-1.62-1.62h-13.36v-1.94h13.83c2.13,0,3.27,1.13,3.27,3.27Z"/><path class="cls-1" d="M291.84,143.41h8.74v-5.8h2.13v5.8h3.45v1.93h-3.45v5.8h-2.13v-5.8h-9.92c-2.6,0-3.98-1.37-3.98-3.97v-3.89h2.13v2.88c0,2.6.42,3.04,3.03,3.04Z"/></svg>