<?xml version="1.0" encoding="UTF-8"?><svg id="_レイヤー_2" xmlns="http://www.w3.org/2000/svg" width="1059.01mm" height="1195.1mm" viewBox="0 0 3001.91 3387.7"><defs><style>.cls-1{fill:#00a0e9;}.cls-1,.cls-2,.cls-3,.cls-4,.cls-5,.cls-6{stroke-width:0px;}.cls-2{fill:#231815;}.cls-3{fill:#595757;}.cls-4{fill:#9fa0a0;}.cls-5{fill:#c9caca;}.cls-6{fill:#fff;}</style></defs><g id="_レイヤー_1-2"><polygon class="cls-4" points="1735.49 2922.38 1654.29 2989.35 1111.51 2696.13 998.8 2789.08 677.58 2615.55 527.94 2738.97 849.16 2912.49 1391.94 3205.71 1391.94 3205.71 1728.81 3387.7 2072.36 3104.36 1735.49 2922.38"/><polygon class="cls-3" points="1848.14 2968.14 1504.59 3251.48 1390.64 3189.92 1734.19 2906.58 1848.14 2968.14"/><polyline class="cls-1" points="1655.52 3118.83 1644.98 3113.14 1489.41 3241.45 1725.25 3368.85 2067.46 3086.62 1831.62 2959.22 1676.05 3087.52 1686.58 3093.21"/><polyline class="cls-1" points="980.48 2787.33 1077.03 2707.7 1619.81 3000.92 1390.64 3189.92 847.86 2896.7 949.42 2812.94"/><polyline class="cls-1" points="847.86 2896.7 526.64 2723.18 676.28 2599.76 997.5 2773.29"/><polygon class="cls-3" points="1108.58 2679.46 1652.99 2973.56 1621.14 2999.82 1076.73 2705.73 1108.58 2679.46"/><path class="cls-6" d="M1097.27,2858.32l6.33,3.42-20.62,17.01-2.62-1.42,18.59-15.33-3.71-2,2.03-1.67Z"/><path class="cls-6" d="M1131.76,2874.88l-9.77,3.57-11.56,13.59-6.78-3.67,1.92-1.58,3.88,2.1,10.19-11.99.19-.25,5.97-2.16-3.71-2-21.58,17.8-2.62-1.42,23.66-19.52,10.21,5.52ZM1130.73,2888.24l-3.18,1.05,8.29,4.48-11.38,9.39-15.11-8.16,11.38-9.39,4.09,2.21,3.18-1.05,2.73,1.47ZM1113.96,2894.72l10,5.4,3.07-2.53-10-5.4-3.07,2.53ZM1121.09,2882.34l1.63.42,9.75-8.04,2.52,1.36-3.18,2.62,5.98,3.23-1.97,1.63-5.98-3.23-3.94,3.25,7.67,2.03-2.08,1.72-12.47-3.28,2.08-1.72ZM1129.07,2895.92l2.25-1.86-10-5.4-2.25,1.86,10,5.4ZM1134.41,2889.07l6.57,3.55-1.97,1.63-9.13-4.93,11.72-9.67,2.55,1.38-4.17,3.44,8.64,1.13-2.25,1.86-8.67-1.11-3.3,2.72Z"/><path class="cls-6" d="M1155.78,2890.39l21.19,11.45-.73,3.18-33.02,6.27-3.36-1.81,33.91-6.44-20.14-10.88,2.14-1.77ZM1179.27,2900.04l1.82.98-1.32,5.67-1.86-1,1.36-5.65ZM1182.9,2900.39l1.85,1-1.32,5.67-1.85-1,1.32-5.67Z"/><path class="cls-6" d="M1204.7,2931.82l-24.2-13.07,2.14-1.77,24.2,13.07-2.14,1.77Z"/><path class="cls-6" d="M1231.5,2958.98l-3.57-1.93-.37-12.77-18.79,2.42-3.57-1.93,37.22-4.77-18.04-9.75,2.17-1.79,23.85,12.88-19.36,2.5.46,15.13Z"/><path class="cls-6" d="M1261.02,2949.28l21.93,11.84-17.52,14.45-21.93-11.84,2.17-1.79,19.2,10.37,13.21-10.9-19.2-10.37,2.14-1.77Z"/><path class="cls-6" d="M1309.61,2988.49l-24.2-13.07,2.14-1.77,24.2,13.07-2.14,1.77Z"/><path class="cls-6" d="M1351.81,3001.56l-2.11,1.74-9.3-5.02-21.48,7.93-2.87-1.55,21.48-7.93-12.21-6.59,2.11-1.74,13.26,7.16,6.15-2.25,2.87,1.55-6.11,2.27,8.22,4.44Z"/><path class="cls-6" d="M1379.55,3026.27l-24.2-13.07,2.14-1.77,24.2,13.07-2.14,1.77Z"/><polygon class="cls-4" points="2377.87 465.5 2542.8 329.48 1963.49 16.53 999.18 811.84 1578.48 1124.79 2202.51 1461.9 3001.91 802.61 2377.87 465.5"/><polygon class="cls-3" points="2375.2 448.97 2540.13 312.95 1960.82 0 996.51 795.31 1575.81 1108.26 2199.84 1445.37 2999.24 786.08 2375.2 448.97"/><polygon class="cls-1" points="1960.82 0 1543.77 343.96 1679.7 417.4 1685.08 412.97 1753.89 450.14 1748.52 454.57 1889.28 530.62 2306.34 186.65 1960.82 0"/><polygon class="cls-5" points="2383.77 228.48 1943.52 591.57 1890.83 563.11 2331.08 200.02 2383.77 228.48"/><path class="cls-6" d="M1863.12,222.65c2.01,2.55,1.31,5.17-.74,6.87-2.7,2.23-8.48,3.8-14.5.55-5.66-3.06-5.24-6.75-3.83-9.3l3.05.69c-2.08,3.91,1.1,6.02,2.67,6.87,1.96,1.06,6.59,2.68,9.92-.06,3.75-3.09.16-5.91-2.11-7.14l2-1.65c2.62,1.42,6.63,2.5,9.28.32,2.68-2.21-.05-4.64-1.83-5.6-1.78-.96-4.8-2.06-9.1-1.18l-.97-2.06c2.79-.72,7.62-.84,12.1,1.58s5.31,6.22,2.44,8.58c-2.39,1.98-5.36,2.22-8.37,1.55Z"/><path class="cls-6" d="M1902.42,229.04l-9.77,3.57-11.56,13.59-6.78-3.67,1.92-1.58,3.88,2.1,10.19-11.99.18-.25,5.97-2.16-3.71-2-21.58,17.8-2.62-1.42,23.66-19.52,10.21,5.52ZM1901.39,242.4l-3.18,1.05,8.29,4.48-11.38,9.39-15.11-8.16,11.38-9.39,4.09,2.21,3.18-1.05,2.73,1.47ZM1884.62,248.87l10,5.4,3.07-2.53-10-5.4-3.07,2.53ZM1891.75,236.5l1.63.42,9.75-8.04,2.52,1.36-3.18,2.63,5.98,3.23-1.97,1.63-5.98-3.23-3.94,3.25,7.67,2.03-2.08,1.72-12.47-3.27,2.08-1.72ZM1899.72,250.07l2.25-1.86-10-5.4-2.25,1.86,10,5.4ZM1905.07,243.23l6.57,3.55-1.97,1.63-9.13-4.93,11.72-9.67,2.55,1.38-4.17,3.44,8.64,1.13-2.25,1.86-8.67-1.11-3.3,2.72Z"/><path class="cls-6" d="M1936.59,246.92l-9.75,3.5-17.66,14.57-2.62-1.42,12.59-10.39-2.99,1.08-2.87-1.55,20.46-7.33,2.83,1.53ZM1935.53,274.76l1.31-13.83-8.68,7.16,5,2.7-1.92,1.58-5-2.7-3.32,2.74-2.59-1.4,3.32-2.74-5-2.7,1.92-1.58,5,2.7,8.54-7.04-19.86,3.73,3.46-2.86,19.86-3.73,1.01-.84-9.27-5.01,2.08-1.72,9.27,5.01,3.75-3.09,2.59,1.4-3.75,3.09,9.27,5.01-2.08,1.72-9.27-5.01-.79.65-1.34,13.85-3.52,2.9Z"/><path class="cls-6" d="M1942.79,283.14l13.21-10.9,19.44,10.5-13.21,10.9-2.66-1.44,3.66-3.02-14.13-7.63-3.66,3.02-2.66-1.44ZM1951.19,279.84l14.13,7.63,1.66-1.37-14.13-7.63-1.66,1.37ZM1971.97,271.92l-8.07.06,13.04,7.05.45-2.57,3.22,1.74-1.28,6.92-3.22-1.74.35-1.77-22.14-11.96,2.08-1.72,3.32,1.79,8.07-.07-10.35-5.59,2.08-1.72,13.43,7.25,2.37-1.95,2.66,1.44-2.37,1.95,13.46,7.27-2.08,1.72-15.04-8.12ZM1970.7,283.03l-14.13-7.63-1.66,1.37,14.13,7.63,1.66-1.37Z"/><path class="cls-6" d="M1987.85,296.72l2.87,1.55-1.65,7.38-2.9-1.57.45-1.95-11.79-2.45,17.04-14.06,4.93,2.66,2.9-2.39,2.38,1.29-2.9,2.39,4.06,2.19-8.85,7.29-8.92-4.82-5.35,4.41,6.97,1.46.76-3.4ZM1987.36,292.69l6.51,3.51,1.63-1.35-6.51-3.51-1.63,1.35ZM2010.59,304.89l-8.71-4.7-1.72,1.42,10.07,5.44-8.9,7.34-12.55-6.78,16.9-13.94-2.24-1.21,4.93-4.07,6.64,3.59,2.11-1.74,2.62,1.42-2.11,1.74,6.54,3.53-4.93,4.07-2.38-1.29-6.28,5.18ZM2004.52,291.23l-2.48-5.64-12.49-.25,2.68-2.21,12.17.23,2.54,5.87-2.42,2ZM1998.96,291.99l-6.51-3.51-1.63,1.35,6.51,3.51,1.63-1.35ZM2005.74,307.31l-7.55-4.08-4.96,4.09,7.55,4.08,4.96-4.09ZM2010.04,301.9l3.44-2.83-6.19-3.34-3.44,2.83,6.19,3.34ZM2007.02,292.89l10.81,5.84,1.89-1.56-10.81-5.84-1.89,1.56Z"/><polygon class="cls-1" points="2553.2 1104.88 2624.46 1046.12 2659.27 1064.92 2722.79 1012.54 2484.49 883.81 2481.74 886.08 2428.47 857.3 2431.22 855.03 1716.28 468.81 1713.52 471.08 1660.25 442.3 1663.01 440.03 1520.58 363.09 1457.06 415.47 1478.57 427.09 1407.31 485.85 1385.81 474.24 1322.29 526.62 1692.26 726.48 1695.01 724.21 1748.28 752.99 1745.53 755.26 2232.94 1018.56 2235.69 1016.29 2288.96 1045.07 2286.21 1047.34 2524.5 1176.07 2588.02 1123.69 2553.2 1104.88"/><path class="cls-6" d="M1888.15,693.65c2.01,2.55,1.31,5.17-.74,6.87-2.7,2.23-8.48,3.8-14.5.55-5.66-3.06-5.24-6.75-3.83-9.3l3.05.68c-2.08,3.91,1.1,6.02,2.67,6.87,1.96,1.06,6.59,2.68,9.92-.06,3.75-3.09.16-5.91-2.11-7.14l2-1.65c2.62,1.42,6.63,2.5,9.28.32,2.68-2.21-.05-4.64-1.83-5.6s-4.8-2.06-9.1-1.18l-.97-2.06c2.79-.72,7.62-.84,12.1,1.57,4.48,2.42,5.31,6.22,2.44,8.58-2.39,1.98-5.35,2.22-8.37,1.55Z"/><path class="cls-6" d="M1927.46,700.04l-9.77,3.57-11.56,13.59-6.78-3.67,1.92-1.58,3.88,2.1,10.19-11.99.18-.25,5.97-2.16-3.71-2-21.58,17.8-2.62-1.42,23.66-19.52,10.21,5.52ZM1926.42,713.4l-3.18,1.05,8.29,4.48-11.38,9.39-15.11-8.16,11.38-9.39,4.09,2.21,3.18-1.05,2.73,1.47ZM1909.66,719.88l10,5.4,3.07-2.53-10-5.4-3.07,2.53ZM1916.79,707.51l1.63.42,9.75-8.04,2.52,1.36-3.18,2.63,5.98,3.23-1.97,1.63-5.98-3.23-3.94,3.25,7.67,2.03-2.08,1.72-12.47-3.27,2.08-1.72ZM1924.76,721.08l2.25-1.86-10-5.4-2.25,1.86,10,5.4ZM1930.1,714.24l6.58,3.55-1.97,1.63-9.13-4.93,11.72-9.67,2.55,1.38-4.17,3.44,8.64,1.13-2.25,1.86-8.67-1.11-3.3,2.72Z"/><path class="cls-6" d="M1951.48,715.56l21.19,11.45-.73,3.18-33.02,6.27-3.36-1.81,33.91-6.44-20.14-10.88,2.14-1.77ZM1974.97,725.21l1.82.98-1.32,5.67-1.85-1,1.36-5.65ZM1978.59,725.56l1.85,1-1.32,5.67-1.85-1,1.32-5.67Z"/><path class="cls-6" d="M2000.39,756.98l-24.2-13.07,2.14-1.77,24.2,13.07-2.14,1.77Z"/><path class="cls-6" d="M2027.19,784.14l-3.57-1.93-.37-12.77-18.79,2.42-3.57-1.93,37.22-4.77-18.04-9.75,2.17-1.79,23.85,12.88-19.36,2.5.46,15.13Z"/><path class="cls-6" d="M2056.71,774.44l21.93,11.84-17.52,14.45-21.93-11.85,2.17-1.79,19.2,10.37,13.21-10.9-19.2-10.37,2.14-1.77Z"/><path class="cls-6" d="M2105.3,813.65l-24.2-13.07,2.14-1.77,24.2,13.07-2.14,1.77Z"/><path class="cls-6" d="M2147.5,826.72l-2.11,1.74-9.3-5.03-21.48,7.93-2.87-1.55,21.48-7.93-12.21-6.59,2.11-1.74,13.26,7.16,6.15-2.25,2.87,1.55-6.11,2.27,8.22,4.44Z"/><path class="cls-6" d="M2175.24,851.44l-24.2-13.07,2.14-1.77,24.2,13.07-2.14,1.77Z"/><polygon class="cls-5" points="1748.28 752.99 1422.4 1021.76 1369.13 992.98 1695.01 724.21 1748.28 752.99"/><polygon class="cls-5" points="2288.94 1045.06 1963.12 1313.77 1909.88 1285.01 2235.69 1016.29 2288.94 1045.06"/><polygon class="cls-1" points="2388.29 230.92 2311.82 293.99 2229.87 249.72 2306.34 186.65 2388.29 230.92"/><polyline class="cls-4" points="2041.06 2384.58 2117.25 2321.75 2180.77 2269.36 1942.25 2140.51 1939.5 2142.78 1886.18 2113.98 1888.93 2111.71 1401.06 1848.15 1398.31 1850.43 1344.99 1821.62 1347.74 1819.35 977.43 1619.3 913.91 1671.69 842.66 1730.45 779.15 1782.83 1149.46 1982.88 1152.21 1980.61 1205.53 2009.41 1202.78 2011.69 1690.65 2275.24 1693.4 2272.97 1746.72 2301.77 1743.97 2304.04 1982.48 2432.89 2046 2380.51"/><polyline class="cls-3" points="2038.39 2368.05 2114.58 2305.21 2178.1 2252.83 1939.58 2123.98 1936.83 2126.25 1883.51 2097.45 1886.26 2095.18 1398.39 1831.62 1395.64 1833.89 1342.32 1805.09 1345.07 1802.82 974.76 1602.77 911.24 1655.15 839.99 1713.92 776.48 1766.3 1146.79 1966.35 1149.54 1964.08 1202.86 1992.88 1200.11 1995.15 1687.98 2258.71 1690.73 2256.44 1744.05 2285.24 1741.3 2287.51 1979.81 2416.36 2043.33 2363.98"/><polygon class="cls-1" points="1687.12 2258.25 1575.98 2198.2 1666.83 2123.28 1777.97 2183.32 1687.12 2258.25"/><polygon class="cls-1" points="1146.95 1966.44 1037.93 1907.54 1128.78 1832.61 1237.8 1891.51 1146.95 1966.44"/><polygon class="cls-5" points="1398 1831.41 1199.71 1994.94 1146.44 1966.16 1344.72 1802.63 1398 1831.41"/><polygon class="cls-5" points="1938.65 2123.48 1740.37 2287.01 1687.12 2258.25 1885.41 2094.71 1938.65 2123.48"/><path class="cls-6" d="M1279.66,1967.87c1.62-1.01,7.84-3.03,13.75.16,7.59,4.1,5.16,11.21-6.92,11.87-3.61.2-11.93.67-17.24.95l13.67,7.39-2.08,1.72-16.82-9.09,2.28-1.88,20.35-1.27c8.12-.5,10.38-5.12,4.96-8.05-4.96-2.68-10.08.01-10.08.01l-1.86-1.81Z"/><path class="cls-6" d="M1326.75,1984.54l-9.77,3.57-11.56,13.59-6.78-3.66,1.92-1.58,3.88,2.1,10.19-11.99.19-.25,5.97-2.16-3.71-2-21.58,17.8-2.62-1.42,23.66-19.52,10.21,5.52ZM1325.71,1997.9l-3.18,1.05,8.29,4.48-11.38,9.39-15.11-8.16,11.38-9.39,4.09,2.21,3.18-1.05,2.73,1.47ZM1308.95,2004.38l10,5.4,3.07-2.53-10-5.4-3.07,2.53ZM1316.08,1992l1.63.42,9.75-8.04,2.52,1.36-3.18,2.62,5.98,3.23-1.97,1.63-5.98-3.23-3.94,3.25,7.67,2.03-2.08,1.72-12.47-3.27,2.08-1.72ZM1324.05,2005.58l2.25-1.86-10-5.4-2.25,1.86,10,5.4ZM1329.39,1998.74l6.58,3.55-1.97,1.63-9.13-4.93,11.72-9.66,2.55,1.38-4.17,3.44,8.64,1.13-2.25,1.86-8.67-1.11-3.3,2.72Z"/><path class="cls-6" d="M1350.77,2000.05l21.19,11.45-.73,3.18-33.02,6.27-3.36-1.81,33.91-6.44-20.14-10.88,2.14-1.77ZM1374.26,2009.71l1.82.98-1.32,5.67-1.85-1,1.36-5.65ZM1377.89,2010.05l1.86,1-1.32,5.67-1.85-1,1.32-5.67Z"/><path class="cls-6" d="M1399.68,2041.48l-24.2-13.07,2.14-1.77,24.2,13.07-2.14,1.77Z"/><path class="cls-6" d="M1426.48,2068.64l-3.57-1.93-.37-12.77-18.79,2.42-3.57-1.93,37.22-4.77-18.04-9.75,2.17-1.79,23.85,12.88-19.36,2.5.47,15.13Z"/><path class="cls-6" d="M1456,2058.94l21.93,11.85-17.52,14.45-21.93-11.85,2.17-1.79,19.2,10.37,13.21-10.9-19.2-10.37,2.14-1.77Z"/><path class="cls-6" d="M1504.59,2098.15l-24.2-13.07,2.14-1.77,24.2,13.07-2.14,1.77Z"/><path class="cls-6" d="M1546.79,2111.22l-2.11,1.74-9.3-5.03-21.48,7.93-2.87-1.55,21.48-7.93-12.21-6.59,2.11-1.74,13.25,7.16,6.15-2.25,2.87,1.55-6.11,2.27,8.22,4.44Z"/><path class="cls-6" d="M1574.53,2135.93l-24.2-13.07,2.14-1.77,24.2,13.07-2.14,1.77Z"/><rect class="cls-4" x="1909.88" y="1326.65" width="23.34" height="45.95"/><rect class="cls-4" x="1909.88" y="1394.87" width="23.34" height="45.95"/><rect class="cls-4" x="1909.88" y="1463.09" width="23.34" height="45.95"/><rect class="cls-4" x="1909.88" y="1531.31" width="23.34" height="45.95"/><rect class="cls-4" x="1909.88" y="1599.53" width="23.34" height="45.95"/><rect class="cls-4" x="1909.88" y="1667.75" width="23.34" height="45.95"/><rect class="cls-4" x="1909.88" y="1735.97" width="23.34" height="45.95"/><rect class="cls-4" x="1909.88" y="1804.2" width="23.34" height="45.95"/><rect class="cls-4" x="1909.88" y="1872.42" width="23.34" height="45.95"/><rect class="cls-4" x="1909.88" y="1940.64" width="23.34" height="45.95"/><rect class="cls-4" x="1909.88" y="2008.86" width="23.34" height="45.95"/><rect class="cls-4" x="1909.88" y="2077.08" width="23.34" height="45.95"/><rect class="cls-4" x="1365.13" y="1029.24" width="23.34" height="45.95"/><rect class="cls-4" x="1365.13" y="1097.46" width="23.34" height="45.95"/><rect class="cls-4" x="1365.13" y="1165.68" width="23.34" height="45.95"/><rect class="cls-4" x="1365.13" y="1233.9" width="23.34" height="45.95"/><rect class="cls-4" x="1365.13" y="1302.12" width="23.34" height="45.95"/><rect class="cls-4" x="1365.13" y="1370.34" width="23.34" height="45.95"/><rect class="cls-4" x="1365.13" y="1438.56" width="23.34" height="45.95"/><rect class="cls-4" x="1365.13" y="1506.78" width="23.34" height="45.95"/><rect class="cls-4" x="1365.13" y="1575" width="23.34" height="45.95"/><rect class="cls-4" x="1365.13" y="1643.22" width="23.34" height="45.95"/><rect class="cls-4" x="1365.13" y="1711.44" width="23.34" height="45.95"/><rect class="cls-4" x="1365.13" y="1779.66" width="23.34" height="45.95"/><rect class="cls-4" x="1698.06" y="2291.93" width="23.34" height="45.95"/><rect class="cls-4" x="1698.06" y="2360.15" width="23.34" height="45.95"/><rect class="cls-4" x="1698.06" y="2428.37" width="23.34" height="45.95"/><rect class="cls-4" x="1698.06" y="2496.59" width="23.34" height="45.95"/><rect class="cls-4" x="1698.06" y="2564.81" width="23.34" height="45.95"/><rect class="cls-4" x="1698.06" y="2633.03" width="23.34" height="45.95"/><rect class="cls-4" x="1698.06" y="2701.25" width="23.34" height="45.95"/><rect class="cls-4" x="1698.06" y="2769.47" width="23.34" height="45.95"/><rect class="cls-4" x="1698.06" y="2837.69" width="23.34" height="45.95"/><rect class="cls-4" x="1698.06" y="2905.91" width="23.34" height="45.95"/><rect class="cls-4" x="1698.06" y="2974.13" width="23.34" height="45.95"/><rect class="cls-4" x="1157.47" y="2007.92" width="23.34" height="45.95"/><rect class="cls-4" x="1157.47" y="2076.14" width="23.34" height="45.95"/><rect class="cls-4" x="1157.47" y="2144.36" width="23.34" height="45.95"/><rect class="cls-4" x="1157.47" y="2212.58" width="23.34" height="45.95"/><rect class="cls-4" x="1157.47" y="2280.8" width="23.34" height="45.95"/><rect class="cls-4" x="1157.47" y="2349.02" width="23.34" height="45.95"/><rect class="cls-4" x="1157.47" y="2417.24" width="23.34" height="45.95"/><rect class="cls-4" x="1157.47" y="2485.46" width="23.34" height="45.95"/><rect class="cls-4" x="1157.47" y="2553.68" width="23.34" height="45.95"/><rect class="cls-4" x="1157.47" y="2621.9" width="23.34" height="45.95"/><rect class="cls-4" x="1157.47" y="2690.12" width="23.34" height="45.95"/><path class="cls-2" d="M7.46,847.74l17.03-22.87c12,11.93,27.04,21.63,46.87,21.63,21.63,0,36.55-11.19,36.55-29.83,0-20.39-13.12-33.56-58.05-33.56v-26.11c38.66,0,51.34-13.42,51.34-31.57,0-16.53-11-26.48-29.21-26.48-15.29,0-27.6,7.33-39.53,18.65l-18.52-22.13c16.78-14.92,35.8-24.99,59.54-24.99,37.79,0,63.77,18.9,63.77,52.27,0,22.07-13.05,36.98-34.43,45.44v1.24c23.37,6.09,41.15,22.87,41.15,49.23,0,36.05-31.45,57.06-69.49,57.06-31.89,0-53.08-12.31-67-27.97Z"/><path class="cls-2" d="M188.83,736.74h83.98v20.74h-59.33v39.44h50.49v20.74h-50.49v58.05h-24.65v-138.97Z"/><path class="cls-2" d="M19.39,1717.27c54.82-53.33,89.38-88.01,89.38-118.22,0-20.82-11.44-34.06-32.69-34.06-15.29,0-27.97,10.07-38.54,21.88l-19.89-19.64c18.03-19.52,36.18-30.7,63.15-30.7,37.79,0,62.53,23.99,62.53,60.66s-32.57,71.35-71.97,112.5c10.44-1,23.49-1.99,33.19-1.99h48.36v30.33H19.39v-20.76Z"/><path class="cls-2" d="M196.28,1602.79h83.98v20.74h-59.33v39.44h50.49v20.74h-50.49v58.05h-24.65v-138.97Z"/><path class="cls-2" d="M30.45,2574.87h44.25v-129.78h-36.55v-22.5c19.64-3.6,33.19-8.7,45.62-16.28h26.73v168.56h38.91v29.21H30.45v-29.21Z"/><path class="cls-2" d="M196.28,2468.84h83.98v20.74h-59.33v39.44h50.49v20.74h-50.49v58.05h-24.65v-138.97Z"/></g></svg>